Exact Audio Copy V0.99 prebeta 4 from 23. January 2008

EAC 抓取日志文件从18. 一月 2013, 20:46

Chinese Classics / Vol. 6 - Xun and Konghou

使用驱动器  ：TEAC    CD-W54E   Adapter: 5  ID: 0

读取模式     : 保护
使用精确流   : 是
废除音频缓冲 : 是
使用 C2 指针 : 否

读取偏移校正                   : 685
读取 Lead-In 和 Lead-Out       : 否
用静音填充抓取中丢失偏移的采样 : 是
去除首尾静音块                 : 否
在 CRC 计算中使用了空样本      : 是
已用接口                       : 已安装外部 ASPI 接口

所用输出格式 : 内部 WAV 函数
样本格式     : 44.100 Hz;16 Bit;立体声


被抓轨 CD 的 TOC

     音轨 |   开始   |   长度   | 起始扇区 | 结尾扇区 
    --------------------------------------------------
       1  |  0:00.00 |  4:36.60 |       0  |   20759  
       2  |  4:36.60 |  4:36.47 |   20760  |   41506  
       3  |  9:13.32 |  5:21.42 |   41507  |   65623  
       4  | 14:34.74 |  4:10.26 |   65624  |   84399  
       5  | 18:45.25 |  4:15.29 |   84400  |  103553  
       6  | 23:00.54 |  5:20.48 |  103554  |  127601  
       7  | 28:21.27 |  4:51.24 |  127602  |  149450  
       8  | 33:12.51 |  4:03.12 |  149451  |  167687  
       9  | 37:15.63 |  4:37.33 |  167688  |  188495  
      10  | 41:53.21 |  4:33.27 |  188496  |  208997  
      11  | 46:26.48 |  4:30.68 |  208998  |  229315  
      12  | 50:57.41 |  5:08.69 |  229316  |  252484  


范围状态及错误

已选择范围

     文件名 E:\名人百集\彭丽媛 - 20世纪中华歌坛名人百集珍藏版.wav

     峰值电平 99.4 %
     范围质量 99.9 %
     复制 CRC 34EC5FE2
     复制成功

没有错误发生
 
状态报告结尾
